# xmcd CD database file
#
# Track frame offsets:
#	150
#	14324
#	28351
#	40578
#	56471
#	70471
#	86387
#	99406
#	112681
#	128915
#	142321
#	157637
#
# Disc length: 2306 seconds
#
# Revision: 0
# Processed by: cddbd v1.5.2PL0 Copyright (c) Steve Scherf et al.
# Submitted via: CDex 1.51
#
DISCID=9409000c
DTITLE=T Jarrod Bonta - White Lines
DYEAR=2011
DGENRE=Country
TTITLE0=You Drive Me Crazy
TTITLE1=The Bottomless Hole
TTITLE2=Tears Keep Fallin'
TTITLE3=I Miss The Mississippi and You
TTITLE4=I'll Love You With All My Heart
TTITLE5=Trouble, Hard Times and the Blues
TTITLE6=Does Your Conscience Ever Bother You
TTITLE7=Forever Always
TTITLE8=Ten More Miles
TTITLE9=Only In My Dreams
TTITLE10=Broken Hearts Like Mine
TTITLE11=T Jarrod Bonta - White Lines
EXTD=YEAR: 2011
EXTT0=
EXTT1=
EXTT2=
EXTT3=
EXTT4=
EXTT5=
EXTT6=
EXTT7=
EXTT8=
EXTT9=
EXTT10=
EXTT11=
PLAYORDER=
